<svg width="1200" height="900" viewBox="0 0 1200 900" xmlns="http://www.w3.org/2000/svg">
    <rect width="1200" height="900" fill="#0a0a0a"/>
    <defs>
        <pattern id="grid" width="40" height="40" patternUnits="userSpaceOnUse">
            <path d="M 40 0 L 0 0 0 40" fill="none" stroke="rgba(255, 77, 0, 0.05)" stroke-width="1"/>
        </pattern>
    </defs>
    <rect width="1200" height="900" fill="url(#grid)" />
    
    <!-- Title Text -->
    <text x="600" y="100" font-family="Arial, sans-serif" font-weight="900" font-size="40" fill="#ff4d00" text-anchor="middle" opacity="0.8" style="text-transform: uppercase; letter-spacing: 5px;">Full Stack</text>
    <text x="600" y="145" font-family="Arial, sans-serif" font-weight="400" font-size="18" fill="#ff4d00" text-anchor="middle" opacity="0.4" style="letter-spacing: 2px;">TECHNICAL BLUEPRINT // BUSINESS TYCOON PRO</text>

    
            <rect x="200" y="200" width="800" height="500" rx="10" fill="none" stroke="#ff4d00" stroke-width="2" opacity="0.3"/>
            <path d="M250 250 L950 250" stroke="#ff4d00" stroke-width="1" opacity="0.2"/>
            <circle cx="270" cy="235" r="5" fill="#ff4d00" opacity="0.5"/>
            <circle cx="290" cy="235" r="5" fill="#ff4d00" opacity="0.5"/>
            <circle cx="310" cy="235" r="5" fill="#ff4d00" opacity="0.5"/>
            <rect x="250" y="300" width="200" height="350" rx="5" fill="rgba(255, 77, 0, 0.2)"/>
            <rect x="480" y="300" width="470" height="150" rx="5" fill="rgba(255, 77, 0, 0.2)"/>
            <rect x="480" y="470" width="470" height="180" rx="5" fill="rgba(255, 77, 0, 0.2)"/>
            <path d="M500 350 L700 350" stroke="#ff4d00" stroke-width="4" stroke-linecap="round" opacity="0.6"/>
            <path d="M500 380 L600 380" stroke="#ff4d00" stroke-width="4" stroke-linecap="round" opacity="0.3"/>
        

    <!-- Corner Accents -->
    <path d="M50 50 L100 50 M50 50 L50 100" stroke="#ff4d00" stroke-width="2" opacity="0.5"/>
    <path d="M1150 50 L1100 50 M1150 50 L1150 100" stroke="#ff4d00" stroke-width="2" opacity="0.5"/>
    <path d="M50 850 L100 850 M50 850 L50 800" stroke="#ff4d00" stroke-width="2" opacity="0.5"/>
    <path d="M1150 850 L1100 850 M1150 850 L1150 800" stroke="#ff4d00" stroke-width="2" opacity="0.5"/>
</svg>